<svg xmlns="http://www.w3.org/2000/svg" viewBox="0 0 400 400" id="Overworked-Employee--Streamline-Free-Illustrations" height="400" width="400"><desc>Overworked Employee Streamline Illustration: https://streamlinehq.com</desc><g><g><path d="M192 321.66a94.1 94.1 0 1 1 52.6 -172.12 0.38 0.38 0 1 1 -0.42 0.62A93.36 93.36 0 1 0 192 320.92 94 94 0 0 0 283.08 248c0.1 -0.5 0.84 -0.3 0.74 0.18A94.2 94.2 0 0 1 192 321.66Z" fill="#00001a" stroke-width="1"></path><path d="M304.98 45.58a24.46 24.46 0 0 0 -20.36 3.06l-0.4 -0.84a4.16 4.16 0 0 0 -5.52 -2l-2.96 1.4 -3.4 -7.12a14 14 0 0 0 -18.68 -6.62c-59.1 28.18 -7.1 3.38 -66 31.46a14 14 0 0 0 -6.62 18.66l10.74 22.54a14 14 0 0 0 18.66 6.62l66 -31.44a14 14 0 0 0 6.62 -18.68l-2.38 -4.98 2.98 -1.42a4.16 4.16 0 0 0 2 -5.52l-0.7 -1.44a23.68 23.68 0 0 1 19.78 -3.02c11.18 4 16 17.42 13.52 27.48s-10.54 18.92 -16 27.64c-9.32 14.82 -13.24 26.18 -7.24 43.7a0.38 0.38 0 1 0 0.72 -0.24c-6 -17.34 -2.24 -28.12 7.16 -43.06 5.52 -8.78 13.58 -17.6 16.14 -27.86s-2.5 -24.18 -14.06 -28.32ZM210 112.12a13.26 13.26 0 0 1 -17.66 -6.26l-10.66 -22.54A13.24 13.24 0 0 1 188 65.66l10 -4.82 22.12 46.48Zm10.76 -5.12 -22.04 -46.48 21.58 -10.28 22.14 46.48Zm22.28 -10.6L220.98 50l21.58 -10.28L264.7 86.2Zm40.22 -40.8 -2.96 1.42L276 48l2.96 -1.4a3.38 3.38 0 0 1 4.52 1.6l1.42 2.94a3.4 3.4 0 0 1 -1.56 4.46Z" fill="#00001a" stroke-width="1"></path><path d="M268.76 66.72a1 1 0 0 1 -1 -1l0 -7.54 -4.78 2.12a1 1 0 0 1 -1.42 -0.9l0 -9.08a1 1 0 0 1 2 0l0 7.56 4.78 -2.14a1 1 0 0 1 1.42 0.92l0 9.08a1 1 0 0 1 -1 0.98Z" fill="#ffffff" stroke-width="1"></path><path d="m233.2 203.86 -19.6 -4.68 -84.96 -87.76a72.2 72.2 0 0 0 -31.04 29.82L133.36 180l-41.14 -9.8c-8.12 12.6 -11.64 25.88 -9.8 40L186.68 238l9.02 9.78c12 12.96 32.18 20.84 50.1 16.16 1.92 -0.28 -6.36 -42.18 -12.6 -60.08Z" fill="#f15e50" stroke-width="1"></path><path d="M203.46 233.72c-0.34 -0.36 -0.9 0.14 -0.58 0.5a55.8 55.8 0 0 0 5.64 5.46 0.38 0.38 0 0 0 0.48 -0.58 52 52 0 0 1 -5.54 -5.38Z" fill="#000000" stroke-width="1"></path><path d="M227.12 248.8a48.18 48.18 0 0 1 -7.24 -2.72 0.38 0.38 0 0 0 -0.32 0.68 47.68 47.68 0 0 0 7.34 2.76 0.38 0.38 0 1 0 0.22 -0.72Z" fill="#000000" stroke-width="1"></path><path d="M143 211.1c6.62 1.72 7.44 2 7.64 2a0.38 0.38 0 0 0 0.1 -0.74l-7.56 -2a0.3807886553 0.3807886553 0 1 0 -0.18 0.74Z" fill="#000000" stroke-width="1"></path><path d="M123 205.18a0.383275358 0.383275358 0 0 0 -0.2 0.74c6.62 1.72 7.44 2 7.64 2a0.38 0.38 0 0 0 0 -0.76Z" fill="#000000" stroke-width="1"></path><path d="M102.8 200a0.3807886553 0.3807886553 0 0 0 -0.18 0.74c6.6 1.7 7.44 2 7.64 2a0.38 0.38 0 0 0 0 -0.74Z" fill="#000000" stroke-width="1"></path><path d="M328.22 272.8a13.86 13.86 0 1 1 12.56 -19.68 13.86 13.86 0 0 1 -12.56 19.68Zm0 -26.96a13.1 13.1 0 1 0 12.32 17.62 13.08 13.08 0 0 0 -12.36 -17.62Z" fill="#00001a" stroke-width="1"></path><path d="m327.86 259.1 -3.86 -8.32a0.38 0.38 0 1 1 0.68 -0.32l3.68 8 7.84 -3.62a0.38 0.38 0 0 1 0.32 0.68l-8.18 3.78a0.38 0.38 0 0 1 -0.48 -0.2Z" fill="#00001a" stroke-width="1"></path><path d="M356.66 102.38c-1.68 -2.88 -11.4 -18.86 -14.24 -17.16 -1.78 1.1 1.16 8.44 4.74 15.56 -2.76 -0.34 -15.34 -1.88 -15.82 0.8s11.44 6 20.52 7.84c1.64 2.8 10.48 17.3 13.74 17.3s-2.66 -12.58 -4.24 -15.72c2.74 0.36 15.34 2 15.82 -0.78s-11.44 -6.02 -20.52 -7.84Zm-13.86 -16.5c2 -1.2 11.34 13.72 12.88 16.3 -2.44 -0.48 -5.08 -0.92 -7.62 -1.28 -4.46 -8.76 -6.06 -14.48 -5.26 -15.02ZM360 110c-2.42 -0.36 -5.02 -0.8 -7.72 -1.32 -1.36 -2.32 -2.68 -4.72 -3.88 -7.04 2.56 0.36 5.18 0.82 7.72 1.32 1.4 2.38 2.72 4.76 3.88 7.04Zm-28 -8.36c0.34 -2 13.2 -0.44 15.5 -0.12q1.78 3.48 3.78 6.96c-12.24 -2.48 -19.42 -5.54 -19.28 -6.76ZM365.72 126c-2 1.2 -11.34 -13.72 -12.86 -16.3 2.44 0.48 5.08 0.92 7.62 1.28 4.46 8.68 6.14 14.4 5.24 15.02Zm10.72 -16c-0.34 1.88 -13.02 0.46 -15.48 0.12q-1.78 -3.48 -3.78 -6.96c12.3 2.6 19.48 5.7 19.26 6.84Z" fill="#00001a" stroke-width="1"></path><path d="m29.5 262.58 -19.74 -17c-0.38 -0.34 0.12 -0.9 0.48 -0.58l19.22 16.58 5.1 -34.92a0.3847076812 0.3847076812 0 0 1 0.76 0.12l-5.2 35.58a0.38 0.38 0 0 1 -0.62 0.22Z" fill="#00001a" stroke-width="1"></path><path d="M138.6 53.16a4.54 4.54 0 1 0 4.38 4.68 4.56 4.56 0 0 0 -4.38 -4.68Zm-0.14 8.3a3.78 3.78 0 1 1 3.78 -3.66 3.78 3.78 0 0 1 -3.78 3.66Z" fill="#00001a" stroke-width="1"></path><path d="M121.6 142.9c-0.32 -0.36 -0.9 0.14 -0.56 0.5 5.54 6.18 5.26 6 5.5 6a0.38 0.38 0 0 0 0.28 -0.62Z" fill="#000000" stroke-width="1"></path><path d="M135.56 158.4a0.38 0.38 0 1 0 -0.56 0.5c5.64 6.28 5.26 6 5.5 6a0.38 0.38 0 0 0 0.28 -0.64Z" fill="#000000" stroke-width="1"></path><path d="M149.52 173.88c-0.34 -0.36 -0.9 0.14 -0.56 0.5 5.64 6.28 5.26 6 5.5 6a0.38 0.38 0 0 0 0.28 -0.62Z" fill="#000000" stroke-width="1"></path><path d="M177.42 204.86a0.38 0.38 0 0 0 -0.56 0.5c5.54 6.16 5.26 6 5.5 6a0.38 0.38 0 0 0 0.28 -0.62Z" fill="#000000" stroke-width="1"></path><path d="M191.38 220.36a0.38 0.38 0 1 0 -0.56 0.5c5.54 6.16 5.26 6 5.5 6a0.38 0.38 0 0 0 0.28 -0.64Z" fill="#000000" stroke-width="1"></path><path d="M163.46 189.38c-0.32 -0.38 -0.88 0.12 -0.56 0.5 5.56 6.16 5.26 6 5.5 6a0.38 0.38 0 0 0 0.28 -0.64Z" fill="#000000" stroke-width="1"></path><path d="M385.88 192.76c-11.28 -11.34 -33.18 -25.62 -33.4 -25.76a0.4 0.4 0 0 0 -0.4 0 33.34 33.34 0 0 0 -5.28 4c-2.56 -1.32 -6.42 -3.78 -6.5 -5.16 -0.3 -5.38 4.34 -14.28 2.82 -15.72A1.06 1.06 0 0 0 342 150c-2 0.76 -3.86 3.6 -4.82 5.48a92.54 92.54 0 0 0 -0.48 -10.84 50.76 50.76 0 0 0 -0.76 -6.4c-1.02 -4.12 -1.68 -4.86 -2.34 -4.78s-1.08 1.84 -1.22 3.7c-0.58 -3.14 -1.52 -6.56 -2.72 -6.5 -0.48 0 -1.5 0 -1.74 7.14 -2.34 -6.48 -7.68 -13.3 -16.28 -20.8a0.4 0.4 0 0 0 -0.62 0.2c-0.86 3.46 -1.76 7.16 -2.6 11.06a0.84 0.84 0 0 0 -0.62 -0.26c-2.32 0 -4.14 8.68 -4.76 11.2a12.46 12.46 0 0 0 -0.32 -4.16c-0.3 -0.76 -0.98 -0.98 -1.64 -0.18 -1.28 1.54 -2.3 5.26 -4 9.48a3.1 3.1 0 0 0 -1.68 -0.76c-2.7 -0.64 -14.84 -3.54 -28.16 -8.14 -6 -2 -14.72 -1.44 -19.64 3.82 -2.92 3.12 -5.46 9.02 -1.06 19.46 4.2 10 16.18 21.32 25.76 27.4 -12.96 0.14 -29.56 -2.82 -49.18 -12.84a6.72 6.72 0 0 0 -5.46 -1.3c-4.94 1.28 -7.46 10.14 -6.82 23.76 -85.62 -88.42 -82 -84.76 -82.26 -84.7a78.38 78.38 0 0 0 -13.84 9.08l-8.44 -9.48c-2.7 -6.64 -3.06 -12.64 -4.74 -18.92a68.58 68.58 0 0 0 -6.58 -16c-1.22 -2 -2.12 -2.94 -2.9 -2.82 -4.44 0.58 -5.3 23.44 -8.78 35.08 -0.84 2.86 -2.52 9.58 -2.26 12.12a17.3 17.3 0 0 0 2.96 6.66c1.1 1.8 16.16 18 48.12 52.62L92.46 170c-0.2 0 -0.36 -0.2 -0.58 0.12a69.5 69.5 0 0 0 -6.6 12.96L74.7 180c-5.74 -4.28 -9.16 -9.08 -14 -13.58a69.02 69.02 0 0 0 -14 -10c-2.14 -1.08 -3.36 -1.34 -4 -0.84 -3.54 2.84 7.94 22.6 11.3 34.42a49.64 49.64 0 0 0 4.54 11.46 17.56 17.56 0 0 0 6 4.12 30.66 30.66 0 0 0 10 3l112 29.82c9.16 10 13.08 14.9 21.32 19.62a55.18 55.18 0 0 0 27.06 7.8 46.44 46.44 0 0 0 16.88 -3.32c13.14 -4.72 45.14 -16.18 67.8 -42.14a104 104 0 0 0 9.48 -12.72c17.26 7.88 28.76 16 42 15.36 9.12 -0.48 15.58 -4.42 18.16 -11.1a19.06 19.06 0 0 0 -3.36 -19.14Zm-326.8 8.14a48.48 48.48 0 0 1 -4.42 -11.2c-2.84 -10 -11.88 -26.6 -12 -32.16 0 -0.64 0.12 -1.5 0.76 -1.5a6.96 6.96 0 0 1 2.62 0.92c0.56 6.92 10.46 25.04 13.58 36.18a70.44 70.44 0 0 0 4 11.08 14 14 0 0 1 -4.54 -3.32Zm262.1 -51.34c-0.26 -5.62 0.36 -6.12 0.36 -6.12s0.62 0.16 1.88 3.64c0.12 0.36 1.2 3.38 1.2 3.38 0 0.36 0.2 3.34 0.3 4.4a0.38 0.38 0 1 0 0.74 0c-0.32 -4 -0.34 -7.12 -1.02 -12.3s0 -6.88 0.42 -6.96c0.4 0 1.54 1.38 2.7 5.86 0.3 1.16 1.34 6.76 1.84 11.2a0.38 0.38 0 1 0 0.74 0c-0.26 -2.36 -0.7 -5.16 -1.08 -7.42a22.6 22.6 0 0 0 -0.68 -4.98c0 -8.22 1.02 -8.66 1.04 -8.68 0.54 0 2 3.64 2.52 9.8 0.44 4.36 0.9 7.54 1 10.14a0.36 0.36 0 0 0 0.36 0.36 0.38 0.38 0 0 0 0.38 -0.4c-0.14 -3.74 -0.88 -7.46 -0.92 -10.82a17.76 17.76 0 0 1 0.7 -6.26c0.16 0.14 0.66 0.86 1.48 4.18 0.72 2.94 2 18 0.68 22.82a0.3807886553 0.3807886553 0 0 0 0.74 0.18 23.04 23.04 0 0 0 0.48 -4c0.26 -0.6 2.48 -5.74 5.16 -6.7a0.68 0.68 0 0 1 0.4 0c0.88 0.86 -3.34 10.22 -3.08 15.24 0.12 2 5.04 4.78 6.68 5.64A44.96 44.96 0 0 0 336 187.3c-11.22 -8.5 -15.82 -11.36 -15.32 -20.26 0.34 -5.04 0.76 -12.2 0.5 -17.48Zm-7.34 18.84a28.42 28.42 0 0 0 6.28 -4 20 20 0 0 0 0.86 9.72c-1.66 1.7 -3.38 3.28 -5.12 4.78 -6.26 2.7 -8.46 1.18 -10.5 -0.66 3.9 -2.48 7.46 -5.76 8.48 -9.84Zm-2.28 2.24c-1.76 1.2 -4.86 0.78 -9 -1.2a7.7 7.7 0 0 0 3.44 -2.12c0.72 -0.8 1.48 -1.72 2.26 -2.72a7.14 7.14 0 0 0 5 1.12 5.16 5.16 0 0 1 -1.7 4.92Zm9.14 -27.12a19.86 19.86 0 0 0 -0.26 6c0.2 4.16 0 9.68 -0.24 13.46 -11.06 4.38 -16.58 2.86 -14 -17.82a61.26 61.26 0 0 1 14.5 -1.64Zm-15.88 -8.44c1.18 -4.58 2.44 -6.3 2.94 -6.3 0.1 0 0.26 0.18 0.4 0.58 -0.86 4 -2.16 10.9 -2.82 16.7a11.52 11.52 0 0 0 -3.58 0.72c0.98 -3.24 1.8 -6.78 3.06 -11.7Zm-9.44 13.24c-1.54 3.56 -3.08 6.76 -3.74 8a0.3801315562 0.3801315562 0 0 0 0.68 0.34c6 -12 7.36 -18.42 9.06 -21.06 0.46 -0.7 0.54 -0.74 0.72 0a39.42 39.42 0 0 1 0 6.9c-0.44 1.64 -0.86 3.2 -1.26 4.5a15.36 15.36 0 0 0 -1.48 0.82c-0.4 0.28 0 0.92 0.42 0.64a11.02 11.02 0 0 1 5.48 -1.8c-1.02 9.38 -0.28 14.8 2.36 17.3 -0.78 1 -1.54 2 -2.24 2.7 -2.72 3.02 -8.14 2.88 -12.14 2a38.46 38.46 0 0 1 -10.3 -3.84 35.14 35.14 0 0 1 7.42 -17.88 13.12 13.12 0 0 0 5.02 1.38Zm-48.2 10.12c-4.24 -10 -1.82 -15.68 0.94 -18.64 4.64 -4.98 13.18 -5.58 18.84 -3.62 11.36 4 21.84 6.6 26.4 7.72 -7.36 2.94 -14.12 22.44 -10.26 29.52l-24.62 -12.48a0.3801315562 0.3801315562 0 0 0 -0.34 0.68l26.26 13.3c3.06 2 6.86 -2 8.98 -5.26a20 20 0 0 0 8.1 0c2.94 1.5 7.44 3.34 10.28 1.66 -1.66 2.6 -5.62 6 -11.9 8.94a66.6 66.6 0 0 1 -26.2 5.78c-9.66 -5.76 -22.18 -17.44 -26.48 -27.6Zm24.22 28.46a65.32 65.32 0 0 0 33.28 -8.26c2.44 2.22 4.6 3.32 9.36 1.76 -25.34 20.2 -57.82 19.74 -75.24 17.58 -2 -4.84 -7.28 -16.66 -13.24 -22.6 18.08 8.76 33.54 11.52 45.84 11.52ZM86.94 111.74A86.24 86.24 0 0 0 84 125.26a14.46 14.46 0 0 1 -2.22 -5.26A48.32 48.32 0 0 1 84 108.16c2.98 -10 4.36 -30.78 7.42 -34.12 1.02 -1.12 1.72 0 2.76 1.84 -2.98 5.78 -4.36 24.54 -7.24 35.86Zm4.56 22.48a76 76 0 0 1 14.32 -22.78l8.2 9.2a70.96 70.96 0 0 0 -16.58 20Zm-16.6 73.6a76 76 0 0 1 0 -26.98l10.2 2.92a55.42 55.42 0 0 0 -3.06 26Zm7.84 2a54.18 54.18 0 0 1 0 -14.28l7.16 1.84a0.38 0.38 0 1 0 0.18 -0.72l-7.24 -1.86a62.5 62.5 0 0 1 9.46 -24.2l40.58 9.68L166 216.26l-2.7 -0.7a0.383275358 0.383275358 0 0 0 -0.2 0.74l3.82 0.98c7.18 7.76 13.58 14.68 18.46 20Zm162.86 53.66c-14.92 3.88 -28.46 -1.14 -37.48 -6.3a51.48 51.48 0 0 1 -12.12 -9.66L98 141.18a70.76 70.76 0 0 1 9.26 -13.02c5.44 6 5.04 5.68 5.28 5.68a0.38 0.38 0 0 0 0.28 -0.62l-5 -5.62a74.64 74.64 0 0 1 20.72 -15.72C233.44 220.24 228.76 215.5 229 215.5a0.38 0.38 0 0 0 0.28 -0.64l-14.52 -15 18.2 4.34A361.26 361.26 0 0 1 244 249.64a30.9 30.9 0 0 1 -3.86 0.54 0.38 0.38 0 0 0 0 0.76 30.64 30.64 0 0 0 4 -0.56c1.18 7.18 1.86 12.38 1.46 13.2Zm142.88 -52c-4 10.38 -16.88 12.22 -27.58 9.5 -10.3 -2.62 -24.96 -11.8 -37.6 -16.76a0.4 0.4 0 0 0 -0.58 0.28l-2 12.94c-22.6 27.42 -56 39.36 -69.38 44.18 -1.5 0.52 -2.84 1.08 -5.04 1.7 0.72 -6.72 -10 -56.16 -15.48 -65.86 14.56 2.78 59.88 8.24 90.4 -22.68 2.22 4.28 7.8 8.16 14.46 13.2a48.98 48.98 0 0 0 -2.2 7.8 1.14 1.14 0 0 0 0.34 0.98l26.58 13.88a0.38 0.38 0 1 0 0.34 -0.66L334.2 196.1c2.28 -12 9.14 -22.94 18 -28.4 2.22 1.46 22.42 14.82 33.06 25.52a18.3 18.3 0 0 1 3.22 18.32Z" fill="#000000" stroke-width="1"></path><path d="m123.98 300.26 39.2 7.64 -36.74 -32.72 -39.22 -7.64 36.76 32.72z" fill="#00001a" stroke-width="1"></path><path d="m165.02 306.68 35.88 -23.56 -42.86 -5.22 -14.56 9.6 21.54 19.18z" fill="#00001a" stroke-width="1"></path><path d="m229.12 350.36 -8.44 7.88 -7.86 -8.44a0.3820994635 0.3820994635 0 0 0 -0.56 0.52l7.88 8.44 -8.44 7.86a0.3820994635 0.3820994635 0 0 0 0.52 0.56l8.44 -7.88 7.86 8.44a0.3820994635 0.3820994635 0 0 0 0.56 -0.52l-7.88 -8.44 8.44 -7.86a0.3820994635 0.3820994635 0 0 0 -0.52 -0.56Z" fill="#00001a" stroke-width="1"></path></g></g></svg>